<svg width="30" height="30" viewBox="0 0 30 30" fill="none" xmlns="http://www.w3.org/2000/svg">
<path d="M26.1543 27.2722C26.0078 27.8093 25.5684 28.2 25.0313 28.2C12.4824 28.2 2.375 18.0437 2.375 5.5437C2.375 4.95776 2.7168 4.51831 3.25391 4.37183L8.33203 3.19995C8.86914 3.10229 9.45508 3.34644 9.69922 3.88354L12.043 9.35229C12.2383 9.84058 12.0918 10.3777 11.7012 10.7195L8.72266 13.1609C10.5293 16.9695 13.6543 20.0457 17.3652 21.8035L19.8066 18.825C20.1484 18.4343 20.6855 18.2878 21.1738 18.4832L26.6426 20.8269C27.1797 21.071 27.4727 21.657 27.3262 22.1941L26.1543 27.2722Z" fill="#E35F0F"/>
</svg>
