<svg width="30" height="30" viewBox="0 0 30 30" fill="none" xmlns="http://www.w3.org/2000/svg">
<path d="M25.1562 6.44995C26.4258 6.44995 27.5 7.52417 27.5 8.7937V22.8562C27.5 24.1746 26.4258 25.2 25.1562 25.2H4.84375C3.52539 25.2 2.5 24.1746 2.5 22.8562V8.7937C2.5 7.52417 3.52539 6.44995 4.84375 6.44995H25.1562ZM25.1562 8.7937H4.84375V10.7957C5.91797 11.7234 7.67578 13.0906 11.3867 16.0203C12.2168 16.655 13.8281 18.2175 15 18.1687C16.123 18.2175 17.7344 16.655 18.5645 16.0203C22.2754 13.0906 24.0332 11.7234 25.1562 10.7957V8.7937ZM4.84375 22.8562H25.1562V13.823C24.0332 14.7019 22.4219 15.9714 20.0293 17.8757C18.9062 18.7058 17.0508 20.5613 15 20.5125C12.9004 20.5613 10.9961 18.7058 9.92188 17.8757C7.5293 15.9714 5.91797 14.7019 4.84375 13.823V22.8562Z" fill="#E35F0F"/>
</svg>
