<svg width="32" height="29" viewBox="0 0 32 29" fill="none" xmlns="http://www.w3.org/2000/svg">
<path d="M15.7774 7.03667C11.3833 7.03667 7.83892 10.3431 7.83892 14.4423C7.83892 18.5416 11.3833 21.848 15.7774 21.848C20.1716 21.848 23.7159 18.5416 23.7159 14.4423C23.7159 10.3431 20.1716 7.03667 15.7774 7.03667ZM15.7774 19.257C12.9378 19.257 10.6164 17.0978 10.6164 14.4423C10.6164 11.7869 12.9309 9.62769 15.7774 9.62769C18.6239 9.62769 20.9385 11.7869 20.9385 14.4423C20.9385 17.0978 18.617 19.257 15.7774 19.257ZM25.8923 6.73374C25.8923 7.69409 25.0632 8.46108 24.0406 8.46108C23.0112 8.46108 22.189 7.68765 22.189 6.73374C22.189 5.77983 23.0181 5.0064 24.0406 5.0064C25.0632 5.0064 25.8923 5.77983 25.8923 6.73374ZM31.15 8.48687C31.0326 6.173 30.466 4.12339 28.649 2.43472C26.8388 0.746045 24.6417 0.217529 22.1614 0.101514C19.605 -0.0338379 11.9429 -0.0338379 9.38655 0.101514C6.91311 0.211084 4.71603 0.7396 2.89895 2.42827C1.08188 4.11694 0.522243 6.16655 0.39788 8.48042C0.25279 10.8652 0.25279 18.013 0.39788 20.3978C0.515334 22.7117 1.08188 24.7613 2.89895 26.45C4.71603 28.1386 6.9062 28.6671 9.38655 28.7832C11.9429 28.9185 19.605 28.9185 22.1614 28.7832C24.6417 28.6736 26.8388 28.1451 28.649 26.45C30.4591 24.7613 31.0257 22.7117 31.15 20.3978C31.2951 18.013 31.2951 10.8716 31.15 8.48687ZM27.8475 22.9566C27.3086 24.2199 26.2653 25.1931 24.9043 25.7023C22.8661 26.4564 18.0298 26.2824 15.7774 26.2824C13.5251 26.2824 8.68182 26.45 6.65056 25.7023C5.29639 25.1996 4.25313 24.2263 3.70731 22.9566C2.89895 21.0552 3.0855 16.5435 3.0855 14.4423C3.0855 12.3412 2.90586 7.823 3.70731 5.92808C4.24622 4.66479 5.28948 3.69155 6.65056 3.18237C8.68873 2.42827 13.5251 2.60229 15.7774 2.60229C18.0298 2.60229 22.873 2.43472 24.9043 3.18237C26.2584 3.68511 27.3017 4.65835 27.8475 5.92808C28.6559 7.82944 28.4693 12.3412 28.4693 14.4423C28.4693 16.5435 28.6559 21.0617 27.8475 22.9566Z" fill="#E35F0F"/>
</svg>
