<svg width="32" height="33" viewBox="0 0 32 33" fill="none" xmlns="http://www.w3.org/2000/svg">
<path d="M7.17829 32.8432H0.769402V10.9155H7.17829V32.8432ZM3.9704 7.92434C1.92104 7.92434 0.258789 6.12085 0.258789 3.94347C0.258789 2.8976 0.649832 1.89456 1.34589 1.15502C2.04196 0.415472 2.98602 0 3.9704 0C4.95478 0 5.89884 0.415472 6.5949 1.15502C7.29096 1.89456 7.682 2.8976 7.682 3.94347C7.682 6.12085 6.01906 7.92434 3.9704 7.92434ZM31.1647 32.8432H24.7696V22.1689C24.7696 19.625 24.7213 16.3626 21.4375 16.3626C18.1054 16.3626 17.5948 19.1265 17.5948 21.9857V32.8432H11.1928V10.9155H17.3395V13.9066H17.4292C18.2848 12.1838 20.3749 10.3656 23.4931 10.3656C29.9792 10.3656 31.1716 14.9037 31.1716 20.798V32.8432H31.1647Z" fill="#E35F0F"/>
</svg>
