<svg width="165" height="65" viewBox="0 0 165 65" fill="none" xmlns="http://www.w3.org/2000/svg">
<path d="M162.791 35.8501C163.009 35.7752 163.345 35.5953 163.658 35.1756C164.298 34.3212 164.626 32.7548 164.314 31.3159C163.916 29.4572 162.697 29.0225 162.635 29C160.783 29 158.94 29 157.088 29C157.01 29.0525 156.893 29.1274 156.76 29.2398C156.76 29.2398 156.518 29.4347 156.338 29.6296C156.088 29.8994 155.69 30.7163 155.557 31.803C155.425 32.9347 155.55 34.576 156.276 35.4679C156.542 35.7976 156.823 35.9325 156.995 36L162.791 35.8501Z" fill="white" stroke="black" stroke-width="0.15" stroke-miterlimit="10"/>
<path d="M47.7312 54.8365C41.9911 48.6997 35.9651 42.6214 29.6474 36.6366C29.1866 36.2041 28.7608 35.7365 28.2707 35.3391C28.1832 35.2689 27.9674 35.0936 27.7632 34.8014C27.7166 34.7371 27.5532 34.4916 27.4307 34.1C27.3374 33.8136 27.3082 33.5623 27.2791 33.0363C27.2441 32.37 27.2265 32.0369 27.2499 31.7856C27.3432 30.7102 27.9557 29.9212 28.4691 29.2549C28.9008 28.6938 29.2566 28.4074 29.84 27.8814C30.7441 27.069 31.5958 26.204 32.4884 25.3799C33.9876 23.9948 34.8801 23.007 36.1985 21.6336C39.9552 17.7002 40.1827 17.782 43.2861 14.5617C44.5287 13.2759 45.9345 12.142 47.0546 10.751C47.0954 10.6984 47.4687 10.2367 48.0579 9.77496C48.3379 9.55872 48.5071 9.45936 48.6063 9.40675C48.7521 9.33078 49.1021 9.16129 49.703 9.07362C50.1638 9.00348 51.0388 8.86905 52.1064 9.19635C52.5614 9.33662 53.5181 9.64054 54.2939 10.5698C55.1631 11.6102 55.2448 12.7674 55.2681 13.159C55.2798 13.3694 55.3089 14.2344 54.9006 15.2338C54.8598 15.339 54.6439 15.8358 54.2298 16.391C53.9847 16.7183 53.7397 16.9696 53.6231 17.0924C53.4014 17.3203 53.2264 17.4664 53.1389 17.5482C52.7539 17.8872 52.5555 18.0976 51.9197 18.7347C50.9338 19.7283 49.9305 20.7043 48.9388 21.692C48.0813 22.5453 46.8446 23.7668 45.2579 25.2864L42.4578 27.9399C53.7397 28.01 57.8465 28.0217 58.2724 27.9983C58.319 27.9983 58.6224 27.9808 59.0307 27.9983C59.3924 28.0158 59.6432 28.0451 59.7307 28.0568C59.9116 28.0801 60.1566 28.1152 60.3666 28.1795C60.5241 28.2262 60.8216 28.3314 61.5216 28.9393C61.9533 29.3133 62.1691 29.5004 62.3733 29.7634C62.9216 30.4589 63.085 31.1719 63.1666 31.5284C63.2717 32.0077 63.4758 32.9896 63.0441 34.1176C62.6533 35.1404 61.9591 35.7073 61.5858 36.0054C61.2299 36.2859 60.6699 36.7242 59.8241 36.8587C59.5266 36.9054 59.2757 36.8996 59.0949 36.8879L42.5803 36.8294C50.6305 44.9358 53.7981 48.1094 54.0489 48.3199C54.2356 48.4777 54.3173 48.5712 54.4748 48.7465C54.6323 48.9218 54.6964 49.0212 54.7489 49.1147C54.8073 49.2199 54.8306 49.2901 54.9006 49.5121C55.0581 49.9914 55.0581 49.9856 55.0814 50.0615C55.1748 50.3713 55.3089 51.0434 55.2914 51.6162C55.2623 53.0072 54.3698 54.1644 54.2881 54.2696C54.2239 54.3514 52.9814 55.8827 51.2138 56.0054C50.5488 56.0522 49.8896 55.8944 49.843 55.8827C49.4346 55.7834 49.1021 55.6372 48.8688 55.5145L47.7312 54.8365Z" fill="white" stroke="black" stroke-width="0.15" stroke-miterlimit="10"/>
<path d="M18.442 50.5439C18.4 50.9303 18.3041 51.455 18.0643 52.049C17.9924 52.2335 17.6807 52.9948 16.9373 53.854C16.3559 54.5287 15.6965 55.2957 14.5335 55.7167C14.012 55.907 12.7651 56.2472 11.4103 55.7743C8.93458 54.9151 8.40706 52.1644 8.34711 51.5934C8.2572 50.763 8.473 50.0883 8.473 50.0883C8.53894 49.8749 8.62286 49.6904 8.65883 49.6097C8.73676 49.4424 8.92259 49.0561 9.25229 48.6178C9.37219 48.4563 9.54003 48.2603 9.74984 48.0469L18.436 39.5986V50.5439H18.442Z" fill="#E35F0F"/>
<path d="M27.4538 60.9995C27.5176 61.1744 27.6162 61.4077 27.7554 61.67C28.1033 62.3055 28.5151 62.7078 28.6426 62.8244C28.805 62.976 29.5415 63.6407 30.7361 63.8972C31.9191 64.1537 32.847 63.8564 33.0325 63.7981C33.7516 63.559 34.2329 63.1743 34.4649 62.9877C34.9578 62.5854 35.242 62.1948 35.4739 61.8741C35.7813 61.4485 35.8741 61.2153 35.9147 61.0812C36.0365 60.7255 36.0365 60.4282 36.0365 60.2299C36.0365 59.2155 35.9901 59.0231 35.9785 57.8978C35.9727 57.5946 35.9785 57.3497 35.8973 57.0058C35.8451 56.7667 35.7697 56.5626 35.6537 56.2536C35.5551 55.9913 35.4913 55.8047 35.3928 55.6065C35.2014 55.2159 34.9868 54.9535 34.8071 54.7378C33.9604 53.7174 33.6356 53.4026 33.6356 53.4026C31.4088 51.2104 30.2954 50.1143 29.9242 49.712C29.5415 49.3039 29.095 48.8025 28.3701 48.132C27.9004 47.6947 27.5002 47.3507 27.2393 47.1408L27.4538 60.9995Z" fill="#27348B" stroke="black" stroke-width="0.15" stroke-miterlimit="10"/>
<path d="M15.1153 36.7604C15.5511 36.6606 16.231 36.4433 16.8702 35.9031C18.1602 34.8225 18.8343 32.8318 18.2009 31.0055C17.3874 28.6447 14.9293 28.0927 14.8073 28.0634C11.0708 28.0634 7.33428 28.0634 3.59778 28.0634C3.44088 28.128 3.20844 28.2278 2.92951 28.3687C2.92951 28.3687 2.44138 28.6154 2.0811 28.8562C1.57554 29.1968 0.767804 30.2362 0.506307 31.6103C0.227377 33.0432 0.488874 35.1279 1.95907 36.2613C2.49949 36.6782 3.05735 36.8544 3.41183 36.9366L15.1153 36.7604Z" fill="white" stroke="black" stroke-width="0.15" stroke-miterlimit="10"/>
<path d="M18.442 14.5658C18.4119 14.3519 18.3639 14.0745 18.2858 13.7509C18.2858 13.7509 18.1597 13.2365 18.0035 12.8145C17.7272 12.0863 17.0665 11.1153 16.0935 10.3119C15.5349 9.84954 15.0064 9.41606 14.1535 9.16754C12.8141 8.77451 11.6669 9.12707 11.3666 9.22533C11.2284 9.27157 9.41456 9.91312 8.63975 11.728C8.26135 12.6238 8.3094 13.3925 8.35745 14.2306C8.3995 14.901 8.51962 15.2709 8.69981 15.5888C8.94607 16.0107 9.2644 16.2766 9.48062 16.4326L18.436 24.9577V14.5658H18.442Z" fill="#E35F0F" stroke="black" stroke-width="0.15" stroke-miterlimit="10"/>
<path d="M27.4097 4.98257L27.2393 17.8592L34.4775 10.487C34.7048 10.2368 34.8695 10.004 34.9832 9.81783C35.1763 9.49781 35.2786 9.23015 35.4547 8.75884C35.5286 8.56101 35.6252 8.31081 35.7218 7.96751C35.7559 7.84532 35.8865 7.39147 35.9604 6.90853C36.1365 5.73899 35.9547 4.72654 35.932 4.60435C35.824 4.03995 35.6877 3.33008 35.2218 2.66094C34.2843 1.32266 32.489 0.822259 31.0459 1.055C30.0118 1.21792 29.3301 1.72996 29.1823 1.84634C28.2278 2.57948 27.8529 3.56864 27.6711 4.06323C27.5461 4.40652 27.4722 4.7091 27.4267 4.94766C27.4211 4.98839 27.4097 5.02912 27.404 5.06403" fill="#27348B"/>
<path d="M27.4097 4.98257L27.2393 17.8592L34.4775 10.487C34.7048 10.2368 34.8695 10.004 34.9832 9.81784C35.1763 9.49781 35.2786 9.23015 35.4547 8.75884C35.5286 8.56101 35.6252 8.31081 35.7218 7.96751C35.7559 7.84532 35.8865 7.39147 35.9604 6.90853C36.1365 5.73899 35.9547 4.72654 35.932 4.60435C35.824 4.03995 35.6877 3.33008 35.2218 2.66094C34.2843 1.32266 32.489 0.822259 31.0459 1.055C30.0118 1.21792 29.3301 1.72996 29.1823 1.84634C28.2278 2.57948 27.8529 3.56864 27.6711 4.06323C27.5461 4.40652 27.4722 4.70909 27.4267 4.94766C27.4211 4.98839 27.4097 5.02912 27.404 5.06403" stroke="black" stroke-width="0.15" stroke-miterlimit="10"/>
<path d="M79.4878 39.24C78.4478 39.24 77.5758 39.064 76.8718 38.712C76.1838 38.36 75.6718 37.848 75.3358 37.176C74.9998 36.488 74.8318 35.64 74.8318 34.632V29.52H73.5838C73.1998 29.52 72.9038 29.424 72.6958 29.232C72.4878 29.024 72.3838 28.744 72.3838 28.392C72.3838 28.024 72.4878 27.744 72.6958 27.552C72.9038 27.36 73.1998 27.264 73.5838 27.264H74.8318V25.08C74.8318 24.584 74.9598 24.208 75.2158 23.952C75.4878 23.696 75.8638 23.568 76.3438 23.568C76.8238 23.568 77.1918 23.696 77.4478 23.952C77.7038 24.208 77.8318 24.584 77.8318 25.08V27.264H80.3758C80.7598 27.264 81.0558 27.36 81.2638 27.552C81.4718 27.744 81.5758 28.024 81.5758 28.392C81.5758 28.744 81.4718 29.024 81.2638 29.232C81.0558 29.424 80.7598 29.52 80.3758 29.52H77.8318V34.464C77.8318 35.232 77.9998 35.808 78.3358 36.192C78.6718 36.576 79.2158 36.768 79.9678 36.768C80.2398 36.768 80.4798 36.744 80.6878 36.696C80.8958 36.648 81.0798 36.616 81.2398 36.6C81.4318 36.584 81.5918 36.648 81.7198 36.792C81.8478 36.92 81.9118 37.192 81.9118 37.608C81.9118 37.928 81.8558 38.216 81.7438 38.472C81.6478 38.712 81.4638 38.88 81.1918 38.976C80.9838 39.04 80.7118 39.096 80.3758 39.144C80.0398 39.208 79.7438 39.24 79.4878 39.24ZM87.1867 39.24C86.3387 39.24 85.5787 39.08 84.9067 38.76C84.2507 38.424 83.7307 37.976 83.3467 37.416C82.9787 36.856 82.7947 36.224 82.7947 35.52C82.7947 34.656 83.0187 33.976 83.4667 33.48C83.9147 32.968 84.6427 32.6 85.6507 32.376C86.6587 32.152 88.0107 32.04 89.7067 32.04H90.9067V33.768H89.7307C88.7387 33.768 87.9467 33.816 87.3547 33.912C86.7627 34.008 86.3387 34.176 86.0827 34.416C85.8427 34.64 85.7227 34.96 85.7227 35.376C85.7227 35.904 85.9067 36.336 86.2747 36.672C86.6427 37.008 87.1547 37.176 87.8107 37.176C88.3387 37.176 88.8027 37.056 89.2027 36.816C89.6187 36.56 89.9467 36.216 90.1867 35.784C90.4267 35.352 90.5467 34.856 90.5467 34.296V31.536C90.5467 30.736 90.3707 30.16 90.0187 29.808C89.6667 29.456 89.0747 29.28 88.2427 29.28C87.7787 29.28 87.2747 29.336 86.7307 29.448C86.2027 29.56 85.6427 29.752 85.0507 30.024C84.7467 30.168 84.4747 30.208 84.2347 30.144C84.0107 30.08 83.8347 29.952 83.7067 29.76C83.5787 29.552 83.5147 29.328 83.5147 29.088C83.5147 28.848 83.5787 28.616 83.7067 28.392C83.8347 28.152 84.0507 27.976 84.3547 27.864C85.0907 27.56 85.7947 27.344 86.4667 27.216C87.1547 27.088 87.7787 27.024 88.3387 27.024C89.4907 27.024 90.4347 27.2 91.1707 27.552C91.9227 27.904 92.4827 28.44 92.8507 29.16C93.2187 29.864 93.4027 30.776 93.4027 31.896V37.656C93.4027 38.152 93.2827 38.536 93.0427 38.808C92.8027 39.064 92.4587 39.192 92.0107 39.192C91.5627 39.192 91.2107 39.064 90.9547 38.808C90.7147 38.536 90.5947 38.152 90.5947 37.656V36.504H90.7867C90.6747 37.064 90.4507 37.552 90.1147 37.968C89.7947 38.368 89.3867 38.68 88.8907 38.904C88.3947 39.128 87.8267 39.24 87.1867 39.24ZM101.92 43.56C101.056 43.56 100.216 43.48 99.3997 43.32C98.5997 43.16 97.8717 42.912 97.2157 42.576C96.9117 42.416 96.7037 42.224 96.5917 42C96.4957 41.776 96.4637 41.544 96.4957 41.304C96.5437 41.08 96.6397 40.88 96.7837 40.704C96.9437 40.528 97.1357 40.408 97.3597 40.344C97.5837 40.28 97.8157 40.312 98.0557 40.44C98.7597 40.792 99.4237 41.016 100.048 41.112C100.688 41.224 101.232 41.28 101.68 41.28C102.752 41.28 103.552 41.016 104.08 40.488C104.624 39.976 104.896 39.208 104.896 38.184V36.024H105.112C104.872 36.84 104.368 37.496 103.6 37.992C102.848 38.472 101.992 38.712 101.032 38.712C99.9757 38.712 99.0557 38.472 98.2717 37.992C97.4877 37.496 96.8797 36.808 96.4477 35.928C96.0157 35.048 95.7997 34.024 95.7997 32.856C95.7997 31.976 95.9197 31.184 96.1597 30.48C96.4157 29.76 96.7677 29.144 97.2157 28.632C97.6797 28.12 98.2317 27.728 98.8717 27.456C99.5277 27.168 100.248 27.024 101.032 27.024C102.024 27.024 102.888 27.272 103.624 27.768C104.376 28.248 104.864 28.888 105.088 29.688L104.848 30.288V28.584C104.848 28.088 104.976 27.712 105.232 27.456C105.504 27.2 105.872 27.072 106.336 27.072C106.816 27.072 107.184 27.2 107.44 27.456C107.696 27.712 107.824 28.088 107.824 28.584V37.824C107.824 39.728 107.32 41.16 106.312 42.12C105.304 43.08 103.84 43.56 101.92 43.56ZM101.848 36.432C102.472 36.432 103.008 36.288 103.456 36C103.904 35.712 104.248 35.304 104.488 34.776C104.744 34.232 104.872 33.592 104.872 32.856C104.872 31.752 104.6 30.888 104.056 30.264C103.512 29.624 102.776 29.304 101.848 29.304C101.224 29.304 100.688 29.448 100.24 29.736C99.7917 30.024 99.4397 30.432 99.1837 30.96C98.9437 31.488 98.8237 32.12 98.8237 32.856C98.8237 33.96 99.0957 34.832 99.6397 35.472C100.184 36.112 100.92 36.432 101.848 36.432ZM116.404 43.56C115.54 43.56 114.7 43.48 113.884 43.32C113.084 43.16 112.356 42.912 111.7 42.576C111.396 42.416 111.188 42.224 111.076 42C110.98 41.776 110.948 41.544 110.98 41.304C111.028 41.08 111.124 40.88 111.268 40.704C111.428 40.528 111.62 40.408 111.844 40.344C112.068 40.28 112.3 40.312 112.54 40.44C113.244 40.792 113.908 41.016 114.532 41.112C115.172 41.224 115.716 41.28 116.164 41.28C117.236 41.28 118.036 41.016 118.564 40.488C119.108 39.976 119.38 39.208 119.38 38.184V36.024H119.596C119.356 36.84 118.852 37.496 118.084 37.992C117.332 38.472 116.476 38.712 115.516 38.712C114.46 38.712 113.54 38.472 112.756 37.992C111.972 37.496 111.364 36.808 110.932 35.928C110.5 35.048 110.284 34.024 110.284 32.856C110.284 31.976 110.404 31.184 110.644 30.48C110.9 29.76 111.252 29.144 111.7 28.632C112.164 28.12 112.716 27.728 113.356 27.456C114.012 27.168 114.732 27.024 115.516 27.024C116.508 27.024 117.372 27.272 118.108 27.768C118.86 28.248 119.348 28.888 119.572 29.688L119.332 30.288V28.584C119.332 28.088 119.46 27.712 119.716 27.456C119.988 27.2 120.356 27.072 120.82 27.072C121.3 27.072 121.668 27.2 121.924 27.456C122.18 27.712 122.308 28.088 122.308 28.584V37.824C122.308 39.728 121.804 41.16 120.796 42.12C119.788 43.08 118.324 43.56 116.404 43.56ZM116.332 36.432C116.956 36.432 117.492 36.288 117.94 36C118.388 35.712 118.732 35.304 118.972 34.776C119.228 34.232 119.356 33.592 119.356 32.856C119.356 31.752 119.084 30.888 118.54 30.264C117.996 29.624 117.26 29.304 116.332 29.304C115.708 29.304 115.172 29.448 114.724 29.736C114.276 30.024 113.924 30.432 113.668 30.96C113.428 31.488 113.308 32.12 113.308 32.856C113.308 33.96 113.58 34.832 114.124 35.472C114.668 36.112 115.404 36.432 116.332 36.432ZM129.28 39.24C128.432 39.24 127.672 39.08 127 38.76C126.344 38.424 125.824 37.976 125.44 37.416C125.072 36.856 124.888 36.224 124.888 35.52C124.888 34.656 125.112 33.976 125.56 33.48C126.008 32.968 126.736 32.6 127.744 32.376C128.752 32.152 130.104 32.04 131.8 32.04H133V33.768H131.824C130.832 33.768 130.04 33.816 129.448 33.912C128.856 34.008 128.432 34.176 128.176 34.416C127.936 34.64 127.816 34.96 127.816 35.376C127.816 35.904 128 36.336 128.368 36.672C128.736 37.008 129.248 37.176 129.904 37.176C130.432 37.176 130.896 37.056 131.296 36.816C131.712 36.56 132.04 36.216 132.28 35.784C132.52 35.352 132.64 34.856 132.64 34.296V31.536C132.64 30.736 132.464 30.16 132.112 29.808C131.76 29.456 131.168 29.28 130.336 29.28C129.872 29.28 129.368 29.336 128.824 29.448C128.296 29.56 127.736 29.752 127.144 30.024C126.84 30.168 126.568 30.208 126.328 30.144C126.104 30.08 125.928 29.952 125.8 29.76C125.672 29.552 125.608 29.328 125.608 29.088C125.608 28.848 125.672 28.616 125.8 28.392C125.928 28.152 126.144 27.976 126.448 27.864C127.184 27.56 127.888 27.344 128.56 27.216C129.248 27.088 129.872 27.024 130.432 27.024C131.584 27.024 132.528 27.2 133.264 27.552C134.016 27.904 134.576 28.44 134.944 29.16C135.312 29.864 135.496 30.776 135.496 31.896V37.656C135.496 38.152 135.376 38.536 135.136 38.808C134.896 39.064 134.552 39.192 134.104 39.192C133.656 39.192 133.304 39.064 133.048 38.808C132.808 38.536 132.688 38.152 132.688 37.656V36.504H132.88C132.768 37.064 132.544 37.552 132.208 37.968C131.888 38.368 131.48 38.68 130.984 38.904C130.488 39.128 129.92 39.24 129.28 39.24ZM143.917 39.24C142.877 39.24 142.005 39.064 141.301 38.712C140.613 38.36 140.101 37.848 139.765 37.176C139.429 36.488 139.261 35.64 139.261 34.632V29.52H138.013C137.629 29.52 137.333 29.424 137.125 29.232C136.917 29.024 136.813 28.744 136.813 28.392C136.813 28.024 136.917 27.744 137.125 27.552C137.333 27.36 137.629 27.264 138.013 27.264H139.261V25.08C139.261 24.584 139.389 24.208 139.645 23.952C139.917 23.696 140.293 23.568 140.773 23.568C141.253 23.568 141.621 23.696 141.877 23.952C142.133 24.208 142.261 24.584 142.261 25.08V27.264H144.805C145.189 27.264 145.485 27.36 145.693 27.552C145.901 27.744 146.005 28.024 146.005 28.392C146.005 28.744 145.901 29.024 145.693 29.232C145.485 29.424 145.189 29.52 144.805 29.52H142.261V34.464C142.261 35.232 142.429 35.808 142.765 36.192C143.101 36.576 143.645 36.768 144.397 36.768C144.669 36.768 144.909 36.744 145.117 36.696C145.325 36.648 145.509 36.616 145.669 36.6C145.861 36.584 146.021 36.648 146.149 36.792C146.277 36.92 146.341 37.192 146.341 37.608C146.341 37.928 146.285 38.216 146.173 38.472C146.077 38.712 145.893 38.88 145.621 38.976C145.413 39.04 145.141 39.096 144.805 39.144C144.469 39.208 144.173 39.24 143.917 39.24Z" fill="white"/>
</svg>
