<svg width="31" height="30" viewBox="0 0 31 30" fill="none" xmlns="http://www.w3.org/2000/svg">
<path d="M3.00385 30C2.17779 30 1.47064 29.6328 0.882382 28.8984C0.294127 28.1641 0 27.2812 0 26.25V3.75C0 2.71875 0.294127 1.83594 0.882382 1.10156C1.47064 0.367188 2.17779 0 3.00385 0H27.0347C27.8607 0 28.5679 0.367188 29.1562 1.10156C29.7444 1.83594 30.0385 2.71875 30.0385 3.75V26.25C30.0385 27.2812 29.7444 28.1641 29.1562 28.8984C28.5679 29.6328 27.8607 30 27.0347 30H3.00385ZM15.0193 16.875L3.00385 7.5V26.25H27.0347V7.5L15.0193 16.875ZM15.0193 13.125L27.0347 3.75H3.00385L15.0193 13.125ZM3.00385 7.5V3.75V26.25V7.5Z" fill="#E35F0F"/>
</svg>
