<svg width="84" height="50" viewBox="0 0 84 50" fill="none" xmlns="http://www.w3.org/2000/svg">
<path d="M38.642 5.58031L35.4921 6.96472C35.2414 7.07286 35.0799 7.3438 35.0883 7.63747C35.0966 7.93115 35.2732 8.1925 35.5296 8.28625L38.7529 9.48986L40.0429 12.9159C40.1437 13.1886 40.394 13.3652 40.6645 13.3575C40.935 13.3498 41.1749 13.1593 41.26 12.8814L42.3537 9.38771L45.5036 8.00331C45.7543 7.89516 45.9158 7.62422 45.9074 7.33055C45.8991 7.03687 45.7225 6.77553 45.4661 6.68177L42.2428 5.47816L40.9528 2.05212C40.852 1.77943 40.6017 1.60284 40.3312 1.61051C40.0607 1.61819 39.8208 1.80869 39.7357 2.08664L38.642 5.58031ZM23.6189 38.401C22.087 40.162 22.1661 42.9519 23.7957 44.6324L26.8103 47.7248C28.4396 49.3962 31.0092 49.3233 32.5495 47.562L63.7859 11.6453C65.3178 9.88434 65.2387 7.09443 63.6091 5.41393L60.5947 2.33071C58.9654 0.659388 56.3959 0.732283 54.8555 2.49353L23.6189 38.401ZM59.8686 8.64285L51.2669 18.5308L49.2368 16.4484L57.8386 6.5604L59.8686 8.64285ZM19.6319 12.9622C19.256 13.129 19.0136 13.5308 19.0261 13.9714C19.0386 14.4119 19.3034 14.7993 19.6882 14.9445L24.519 16.7546L26.458 21.889C26.6135 22.2979 26.9847 22.5629 27.3904 22.5514C27.7962 22.5399 28.1518 22.2543 28.2838 21.8372L29.9286 16.6012L34.6491 14.5201C35.025 14.3533 35.2674 13.9515 35.2549 13.511C35.2424 13.0705 34.9776 12.683 34.5928 12.5378L29.762 10.7277L27.823 5.59332C27.6676 5.18442 27.2963 4.91941 26.8906 4.93092C26.4848 4.94243 26.1292 5.22806 25.9972 5.64512L24.3524 10.8811L19.6319 12.9622ZM50.0512 35.6122C49.6752 35.779 49.4329 36.1808 49.4453 36.6213C49.4578 37.0618 49.7226 37.4492 50.1074 37.5945L54.9382 39.4046L56.8773 44.539C57.0327 44.9479 57.4039 45.2129 57.8097 45.2014C58.2154 45.1899 58.571 44.9042 58.703 44.4872L60.3478 39.2511L65.0683 37.1701C65.4442 37.0032 65.6866 36.6014 65.6741 36.1609C65.6616 35.7204 65.3968 35.333 65.0121 35.1877L60.1812 33.3776L58.2422 28.2433C58.0868 27.8344 57.7155 27.5694 57.3098 27.5809C56.9041 27.5924 56.5484 27.878 56.4165 28.2951L54.7716 33.5311L50.0512 35.6122Z" fill="black"/>
</svg>
