<svg width="31" height="30" viewBox="0 0 31 30" fill="none" xmlns="http://www.w3.org/2000/svg">
<path d="M9.72708 1.44245C9.27737 0.352816 8.08752 -0.227151 6.94882 0.0833365L1.78356 1.48932C0.76224 1.77051 0.0506567 2.69612 0.0486982 3.7506C0.0217804 18.2439 11.7684 29.9956 26.2825 29.9956C27.3385 29.9956 28.2668 29.2867 28.5503 28.2674L29.9678 23.1121C30.2809 21.9756 29.7023 20.7864 28.6119 20.3353L22.9843 17.992C22.0288 17.5937 20.9195 17.869 20.2668 18.6716L17.8913 21.5597C13.7648 19.6089 10.427 16.2697 8.48107 12.1455L11.3777 9.78461C12.1827 9.12848 12.4604 8.02713 12.0633 7.07223L9.72707 1.44831L9.72708 1.44245Z" fill="#E35F0F"/>
</svg>
