<svg width="31" height="30" viewBox="0 0 31 30" fill="none" xmlns="http://www.w3.org/2000/svg">
<path d="M14.6289 27.8367C7.5 17.5828 6.23047 16.5085 6.23047 12.7C6.23047 7.52417 10.3809 3.32495 15.6055 3.32495C20.7812 3.32495 24.9805 7.52417 24.9805 12.7C24.9805 16.5085 23.6621 17.5828 16.5332 27.8367C16.0938 28.5203 15.0684 28.5203 14.6289 27.8367ZM15.6055 16.6062C17.7539 16.6062 19.5117 14.8972 19.5117 12.7C19.5117 10.5515 17.7539 8.7937 15.6055 8.7937C13.4082 8.7937 11.6992 10.5515 11.6992 12.7C11.6992 14.8972 13.4082 16.6062 15.6055 16.6062Z" fill="#E35F0F"/>
</svg>
