<svg width="32" height="33" viewBox="0 0 32 33" fill="none" xmlns="http://www.w3.org/2000/svg">
<path d="M31.2888 13.4651C28.247 13.4718 25.2799 12.5911 22.8065 10.9473V22.4117C22.8057 24.535 22.1067 26.6075 20.8029 28.352C19.4992 30.0965 17.6529 31.4299 15.511 32.1739C13.369 32.9179 11.0334 33.037 8.81659 32.5153C6.59973 31.9936 4.60725 30.856 3.10557 29.2546C1.60389 27.6531 0.664581 25.6642 0.41325 23.5537C0.161919 21.4433 0.610542 19.3119 1.69913 17.4445C2.78772 15.5772 4.4644 14.0629 6.50495 13.1042C8.5455 12.1454 10.8527 11.788 13.118 12.0795V17.8457C12.0814 17.5429 10.9682 17.5521 9.93756 17.8717C8.90687 18.1914 8.01133 18.8053 7.37883 19.6257C6.74632 20.4461 6.4092 21.4311 6.4156 22.44C6.422 23.4489 6.7716 24.4301 7.41447 25.2435C8.05734 26.0569 8.9606 26.661 9.99527 26.9693C11.0299 27.2777 12.1431 27.2747 13.1758 26.9606C14.2085 26.6466 15.1079 26.0376 15.7456 25.2206C16.3832 24.4037 16.7266 23.4206 16.7266 22.4117V0H22.8065C22.8023 0.476701 22.8453 0.952753 22.935 1.42214C23.1463 2.46996 23.5856 3.46676 24.226 4.35156C24.8664 5.23635 25.6946 5.99055 26.6597 6.568C28.0328 7.41095 29.6426 7.86024 31.2888 7.85992V13.4651Z" fill="#E35F0F"/>
</svg>
