<svg width="42" height="55" viewBox="0 0 42 55" fill="none" xmlns="http://www.w3.org/2000/svg">
<path d="M30.3846 41.4199C31.5028 38.0555 33.8207 35.1867 36.1153 32.3285C36.721 31.5797 37.3266 30.8309 37.909 30.0715C40.2153 27.0656 41.5664 23.427 41.5664 19.493C41.5664 9.23086 32.388 0.919922 21.0664 0.919922C9.74482 0.919922 0.566406 9.23086 0.566406 19.4824C0.566406 23.4164 1.91754 27.0656 4.22379 30.0609C4.80618 30.8203 5.41186 31.5691 6.01754 32.318C8.32379 35.1762 10.6417 38.0555 11.7482 41.4094H30.3846V41.4199ZM21.0664 54.9199C26.2147 54.9199 30.3846 51.1441 30.3846 46.4824V44.7949H11.7482V46.4824C11.7482 51.1441 15.9181 54.9199 21.0664 54.9199ZM11.7482 19.4824C11.7482 20.4105 10.9096 21.1699 9.88459 21.1699C8.85959 21.1699 8.02095 20.4105 8.02095 19.4824C8.02095 12.9539 13.8565 7.66992 21.0664 7.66992C22.0914 7.66992 22.93 8.4293 22.93 9.35742C22.93 10.2855 22.0914 11.0449 21.0664 11.0449C15.9181 11.0449 11.7482 14.8207 11.7482 19.4824Z" fill="black"/>
</svg>
