<svg width="31" height="30" viewBox="0 0 31 30" fill="none" xmlns="http://www.w3.org/2000/svg">
<path d="M20.6515 15C20.6515 16.3008 20.5811 17.5547 20.4579 18.75H9.58065C9.45158 17.5547 9.38704 16.3008 9.38704 15C9.38704 13.6992 9.45745 12.4453 9.58065 11.25H20.4579C20.587 12.4453 20.6515 13.6992 20.6515 15ZM22.3412 11.25H29.5633C29.8743 12.4512 30.0385 13.7051 30.0385 15C30.0385 16.2949 29.8743 17.5488 29.5633 18.75H22.3412C22.4644 17.543 22.5289 16.2891 22.5289 15C22.5289 13.7109 22.4644 12.457 22.3412 11.25ZM28.9473 9.375H22.1006C21.5139 5.63086 20.3523 2.49609 18.8562 0.492187C23.45 1.70508 27.1872 5.0332 28.9414 9.375H28.9473ZM20.1997 9.375H9.83879C10.1967 7.24219 10.7482 5.35547 11.4229 3.82617C12.0389 2.44336 12.7253 1.44141 13.3883 0.808594C14.0454 0.1875 14.591 0 15.0193 0C15.4476 0 15.9932 0.1875 16.6503 0.808594C17.3132 1.44141 17.9997 2.44336 18.6157 3.82617C19.2962 5.34961 19.8419 7.23633 20.1997 9.375ZM7.93792 9.375H1.09124C2.85131 5.0332 6.58266 1.70508 11.1823 0.492187C9.68625 2.49609 8.52461 5.63086 7.93792 9.375ZM0.475219 11.25H7.69737C7.57417 12.457 7.50963 13.7109 7.50963 15C7.50963 16.2891 7.57417 17.543 7.69737 18.75H0.475219C0.164273 17.5488 0 16.2949 0 15C0 13.7051 0.164273 12.4512 0.475219 11.25ZM11.4229 26.168C10.7423 24.6445 10.1967 22.7578 9.83879 20.625H20.1997C19.8419 22.7578 19.2904 24.6445 18.6157 26.168C17.9997 27.5508 17.3132 28.5527 16.6503 29.1855C15.9932 29.8125 15.4476 30 15.0193 30C14.591 30 14.0454 29.8125 13.3883 29.1914C12.7253 28.5586 12.0389 27.5566 11.4229 26.1738V26.168ZM7.93792 20.625C8.52461 24.3691 9.68625 27.5039 11.1823 29.5078C6.58266 28.2949 2.85131 24.9668 1.09124 20.625H7.93792ZM28.9473 20.625C27.1872 24.9668 23.4559 28.2949 18.8621 29.5078C20.3581 27.5039 21.5139 24.3691 22.1065 20.625H28.9473Z" fill="black"/>
</svg>
