<svg width="48" height="61" viewBox="0 0 48 61" fill="none" xmlns="http://www.w3.org/2000/svg">
<path d="M22.3162 0.919922C24.3212 0.919922 25.9412 2.5957 25.9412 4.66992V29.0449H18.6912V4.66992C18.6912 2.5957 20.3111 0.919922 22.3162 0.919922ZM33.1912 19.6699C35.1962 19.6699 36.8162 21.3457 36.8162 23.4199V30.9199C36.8162 32.9941 35.1962 34.6699 33.1912 34.6699C31.1861 34.6699 29.5662 32.9941 29.5662 30.9199V23.4199C29.5662 21.3457 31.1861 19.6699 33.1912 19.6699ZM40.4412 27.1699C40.4412 25.0957 42.0611 23.4199 44.0662 23.4199C46.0712 23.4199 47.6912 25.0957 47.6912 27.1699V34.6699C47.6912 36.7441 46.0712 38.4199 44.0662 38.4199C42.0611 38.4199 40.4412 36.7441 40.4412 34.6699V27.1699ZM7.51029 6.91992L16.8673 29.0449H8.96029L0.872011 9.91992C0.0677145 8.02148 0.905996 5.81836 2.74115 4.98633C4.57631 4.1543 6.71732 5.02148 7.51029 6.91992ZM10.5689 32.8535L10.5462 32.7949H18.4646H21.4099C23.9134 32.7949 25.9412 34.8926 25.9412 37.4824C25.9412 40.0723 23.9134 42.1699 21.4099 42.1699H15.0662C14.0693 42.1699 13.2537 43.0137 13.2537 44.0449C13.2537 45.0762 14.0693 45.9199 15.0662 45.9199H21.4099C25.9185 45.9199 29.5662 42.1465 29.5662 37.4824V37.4121C30.631 38.0449 31.8658 38.4199 33.1912 38.4199C34.6865 38.4199 36.0685 37.9512 37.224 37.1543C38.2095 40.0723 40.9056 42.1699 44.0662 42.1699C45.3915 42.1699 46.6263 41.8066 47.6912 41.1621V42.1699C47.6912 52.5293 39.5802 60.9199 29.5662 60.9199H22.5767C17.7736 60.9199 13.163 58.9395 9.76459 55.4238L8.45053 54.0645C5.72045 51.252 4.19115 47.4316 4.19115 43.459V40.2949C4.19115 36.4629 6.97787 33.2988 10.5689 32.8535Z" fill="black"/>
</svg>
