<svg width="57" height="50" viewBox="0 0 57 50" fill="none" xmlns="http://www.w3.org/2000/svg">
<path d="M16.5013 13.5565C13.6429 10.6676 13.6429 5.97552 16.5013 3.0866C19.3597 0.197694 23.9875 0.197694 26.8459 3.0866L28.5667 4.83158L30.2876 3.0866C33.1459 0.197694 37.7738 0.197694 40.6321 3.0866C43.4905 5.97552 43.4905 10.6676 40.6321 13.5565L30.7542 23.561C30.1515 24.1718 29.3639 24.4723 28.5667 24.4723C27.7695 24.4723 26.982 24.1718 26.3792 23.561L16.5013 13.5565ZM55.8087 32.887C57.0823 34.6126 56.7129 37.0362 54.9823 38.3061L42.6738 47.3509C40.3988 49.0184 37.6571 49.9199 34.8279 49.9199H19.2333H3.67755C1.9567 49.9199 0.566406 48.5336 0.566406 46.8177V40.6134C0.566406 38.8975 1.9567 37.5112 3.67755 37.5112H7.25537L11.6207 34.0212C13.8277 32.2569 16.5694 31.3068 19.3986 31.3068H27.0111H28.5667H34.789C36.5099 31.3068 37.9001 32.6931 37.9001 34.409C37.9001 36.1249 36.5099 37.5112 34.789 37.5112H28.5667H27.0111C26.1556 37.5112 25.4556 38.2092 25.4556 39.0623C25.4556 39.9154 26.1556 40.6134 27.0111 40.6134H38.7363L50.3739 32.063C52.1045 30.793 54.535 31.1614 55.8087 32.887ZM19.3888 37.5112H19.3013C19.3305 37.5112 19.3597 37.5112 19.3888 37.5112Z" fill="black"/>
</svg>
